<svg width="100" height="100" viewBox="0 0 100 100" fill="none" xmlns="http://www.w3.org/2000/svg">
<g filter="url(#filter0_f_8_127)">
<path d="M51.1514 10C50.6508 10 50.1502 10.4005 49.8498 10.9011L40.438 29.0238C40.2378 29.5244 39.7372 29.9249 39.1364 29.9249H25.0188C16.7084 29.9249 10 36.6333 10 44.9437V89.0989C10 89.5995 10.4005 90 10.9011 90H89.0989C89.5995 90 90 89.5995 90 89.0989V30.9262C90 30.3254 89.5995 30.025 89.0989 30.025H80.9887C80.4881 30.025 79.9875 29.6245 79.6871 29.1239L70.2753 11.0013C69.975 10.5006 69.5745 10.1001 68.9737 10.1001H50.8511L51.1514 10ZM25.219 40.0375C28.0225 40.0375 30.2253 42.2403 30.2253 45.0438C30.2253 47.8473 28.0225 50.0501 25.219 50.0501C22.4155 50.0501 20.2128 47.8473 20.2128 45.0438C20.2128 42.2403 22.4155 40.0375 25.219 40.0375ZM60.2628 40.0375C71.2766 40.0375 80.2879 49.0488 80.2879 60.0626C80.2879 71.0763 71.2766 80.0876 60.2628 80.0876C49.2491 80.0876 40.2378 71.0763 40.2378 60.0626C40.2378 49.0488 49.2491 40.0375 60.2628 40.0375ZM60.2628 50.0501C54.7559 50.0501 50.2503 54.5557 50.2503 60.0626C50.2503 65.5695 54.7559 70.0751 60.2628 70.0751C65.7697 70.0751 70.2753 65.5695 70.2753 60.0626C70.2753 54.5557 65.7697 50.0501 60.2628 50.0501Z" fill="#DBDBDB"/>
</g>
<defs>
<filter id="filter0_f_8_127" x="0" y="0" width="100" height="100" filterUnits="userSpaceOnUse" color-interpolation-filters="sRGB">
<feFlood flood-opacity="0" result="BackgroundImageFix"/>
<feBlend mode="normal" in="SourceGraphic" in2="BackgroundImageFix" result="shape"/>
<feGaussianBlur stdDeviation="5" result="effect1_foregroundBlur_8_127"/>
</filter>
</defs>
</svg>
