<svg width="80" height="80" viewBox="0 0 80 80" fill="none" xmlns="http://www.w3.org/2000/svg">
<path d="M41.1514 0C40.6508 0 40.1502 0.400501 39.8498 0.901127L30.438 19.0238C30.2378 19.5244 29.7372 19.9249 29.1364 19.9249H15.0188C6.70839 19.9249 0 26.6333 0 34.9437V79.0989C0 79.5995 0.400501 80 0.901127 80H79.0989C79.5995 80 80 79.5995 80 79.0989V20.9262C80 20.3254 79.5995 20.025 79.0989 20.025H70.9887C70.4881 20.025 69.9875 19.6245 69.6871 19.1239L60.2753 1.00125C59.975 0.500626 59.5745 0.100125 58.9737 0.100125H40.8511L41.1514 0ZM15.219 30.0375C18.0225 30.0375 20.2253 32.2403 20.2253 35.0438C20.2253 37.8473 18.0225 40.0501 15.219 40.0501C12.4155 40.0501 10.2128 37.8473 10.2128 35.0438C10.2128 32.2403 12.4155 30.0375 15.219 30.0375ZM50.2628 30.0375C61.2766 30.0375 70.2879 39.0488 70.2879 50.0626C70.2879 61.0763 61.2766 70.0876 50.2628 70.0876C39.2491 70.0876 30.2378 61.0763 30.2378 50.0626C30.2378 39.0488 39.2491 30.0375 50.2628 30.0375ZM50.2628 40.0501C44.7559 40.0501 40.2503 44.5557 40.2503 50.0626C40.2503 55.5695 44.7559 60.0751 50.2628 60.0751C55.7697 60.0751 60.2753 55.5695 60.2753 50.0626C60.2753 44.5557 55.7697 40.0501 50.2628 40.0501Z" fill="#DBDBDB"/>
</svg>
