<svg width="100" height="81" viewBox="0 0 100 81" fill="none" xmlns="http://www.w3.org/2000/svg">
<g filter="url(#filter0_f_7_17)">
<path d="M14.2644 10.0203C12.9381 10.2325 11.7504 10.9629 10.9626 12.0508C10.1748 13.1387 9.85142 14.495 10.0636 15.8214C10.2758 17.1477 11.0062 18.3354 12.0942 19.1232C13.1821 19.911 14.5384 20.2343 15.8647 20.0221H30.8675L31.7676 22.5226L35.8684 35.0249L39.9691 47.5272C40.3692 48.8274 42.0695 50.0277 43.3698 50.0277H78.3762C79.7765 50.0277 81.3768 48.8274 81.7768 47.5272L89.8783 22.5226C90.2784 21.2224 89.6783 20.0221 88.278 20.0221H43.8699L40.0692 12.8208C39.6643 11.9943 39.0393 11.2954 38.2628 10.8013C37.4863 10.3072 36.5886 10.0369 35.6683 10.0203L15.6647 10.0203C15.3652 9.99324 15.0639 9.99324 14.7645 10.0203C14.5646 10.0083 14.3642 10.0083 14.1644 10.0203L14.2644 10.0203ZM45.8702 60.0295C43.0697 60.0295 40.8693 62.2299 40.8693 65.0304C40.8693 67.8309 43.0697 70.0313 45.8702 70.0313C48.6707 70.0313 50.8711 67.8309 50.8711 65.0304C50.8711 62.2299 48.6707 60.0295 45.8702 60.0295ZM75.8757 60.0295C73.0752 60.0295 70.8748 62.2299 70.8748 65.0304C70.8748 67.8309 73.0752 70.0313 75.8757 70.0313C78.6763 70.0313 80.8767 67.8309 80.8767 65.0304C80.8767 62.2299 78.6763 60.0295 75.8757 60.0295Z" fill="#DBDBDB"/>
</g>
<defs>
<filter id="filter0_f_7_17" x="0" y="0" width="100" height="80.0314" filterUnits="userSpaceOnUse" color-interpolation-filters="sRGB">
<feFlood flood-opacity="0" result="BackgroundImageFix"/>
<feBlend mode="normal" in="SourceGraphic" in2="BackgroundImageFix" result="shape"/>
<feGaussianBlur stdDeviation="5" result="effect1_foregroundBlur_7_17"/>
</filter>
</defs>
</svg>
