<svg width="80" height="61" viewBox="0 0 80 61" fill="none" xmlns="http://www.w3.org/2000/svg">
<path d="M4.2644 0.0202949C2.93808 0.232507 1.75037 0.962909 0.962575 2.05082C0.174777 3.13873 -0.148584 4.49504 0.0636287 5.82136C0.275841 7.14769 1.00624 8.33539 2.09415 9.12319C3.18207 9.91099 4.53837 10.2343 5.8647 10.0221H20.8675L21.7676 12.5226L25.8684 25.0249L29.9691 37.5272C30.3692 38.8274 32.0695 40.0277 33.3698 40.0277H68.3762C69.7765 40.0277 71.3768 38.8274 71.7768 37.5272L79.8783 12.5226C80.2784 11.2224 79.6783 10.0221 78.278 10.0221H33.8699L30.0692 2.82081C29.6643 1.99425 29.0393 1.29544 28.2628 0.801314C27.4863 0.307193 26.5886 0.0369331 25.6683 0.0202949L5.66466 0.0202949C5.36521 -0.00676497 5.06394 -0.00676497 4.76449 0.0202949C4.56464 0.00828188 4.36424 0.00828188 4.16438 0.0202949L4.2644 0.0202949ZM35.8702 50.0295C33.0697 50.0295 30.8693 52.2299 30.8693 55.0304C30.8693 57.8309 33.0697 60.0313 35.8702 60.0313C38.6707 60.0313 40.8711 57.8309 40.8711 55.0304C40.8711 52.2299 38.6707 50.0295 35.8702 50.0295ZM65.8757 50.0295C63.0752 50.0295 60.8748 52.2299 60.8748 55.0304C60.8748 57.8309 63.0752 60.0313 65.8757 60.0313C68.6763 60.0313 70.8767 57.8309 70.8767 55.0304C70.8767 52.2299 68.6763 50.0295 65.8757 50.0295Z" fill="#DBDBDB"/>
</svg>
