<svg width="64" height="56" viewBox="0 0 64 56" fill="none" xmlns="http://www.w3.org/2000/svg">
<path d="M0.799001 0C0.3196 0 0.0799001 0.319601 0.0799001 0.719101V15.98H16.0599V0.719101C16.0599 0.2397 15.7403 0 15.3408 0H0.878901L0.799001 0ZM48.7391 0C48.3396 0 48.02 0.319601 48.02 0.719101V15.98H64V0.719101C64 0.2397 63.6804 0 63.2809 0H48.819L48.7391 0ZM24.769 7.99001C24.2896 7.99001 24.0499 8.30961 24.0499 8.70911V15.98H40.03V8.70911C40.03 8.30961 39.7104 7.99001 39.3109 7.99001H24.8489H24.769ZM0.0799001 23.97V31.96H64V23.97H0.0799001ZM0.0799001 39.9501V55.211C0.0799001 55.6105 0.399501 55.9301 0.799001 55.9301H15.2609C15.6604 55.9301 15.98 55.6105 15.98 55.211V39.9501H0H0.0799001ZM24.0499 39.9501V47.221C24.0499 47.6205 24.3695 47.9401 24.769 47.9401H39.231C39.6305 47.9401 39.9501 47.6205 39.9501 47.221V39.9501H23.97H24.0499ZM48.02 39.9501V55.211C48.02 55.6105 48.3396 55.9301 48.7391 55.9301H63.201C63.6005 55.9301 63.9201 55.6105 63.9201 55.211V39.9501H47.9401H48.02Z" fill="#DBDBDB"/>
</svg>
