<svg width="65" height="65" viewBox="0 0 65 65" fill="none" xmlns="http://www.w3.org/2000/svg">
<path d="M65 46.1175C65 57.9475 57.9475 65 46.1175 65H42.25C40.4625 65 39 63.5375 39 61.75V42.9975C39 42.12 39.715 41.3725 40.5925 41.3725L46.3125 41.275C46.7675 41.2425 47.1575 40.9175 47.255 40.4625L48.3925 34.255C48.49 33.67 48.035 33.1175 47.4175 33.1175L40.495 33.215C39.585 33.215 38.87 32.5 38.8375 31.6225L38.7075 23.66C38.7075 23.14 39.13 22.685 39.6825 22.685L47.4825 22.555C48.035 22.555 48.4575 22.1325 48.4575 21.58L48.3275 13.78C48.3275 13.2275 47.905 12.805 47.3525 12.805L38.5775 12.935C33.1825 13.0325 28.8925 17.4525 28.99 22.8475L29.1525 31.785C29.185 32.695 28.47 33.41 27.56 33.4425L23.66 33.5075C23.1075 33.5075 22.685 33.93 22.685 34.4825L22.7825 40.6575C22.7825 41.21 23.205 41.6325 23.7575 41.6325L27.6575 41.5675C28.5675 41.5675 29.2825 42.2825 29.315 43.16L29.6075 61.685C29.64 63.505 28.1775 65 26.3575 65H18.8825C7.0525 65 0 57.9475 0 46.085V18.8825C0 7.0525 7.0525 0 18.8825 0H46.1175C57.9475 0 65 7.0525 65 18.8825V46.1175Z" fill="#DBDBDB"/>
</svg>
