<svg width="102" height="73" viewBox="0 0 102 73" fill="none" xmlns="http://www.w3.org/2000/svg">
<path d="M73.0605 60.8675C83.2212 75.0924 99.2693 64.5867 95.4139 50.7068C89.6236 29.8618 86.473 18.256 84.8343 12.1286C83.8702 8.52537 80.6046 6 76.8744 6H24.5396C20.8097 6 17.559 8.53939 16.6521 12.1574C13.2407 25.7665 10.197 37.7077 6.58611 50.7068C2.73055 64.5867 18.7789 75.0924 28.9395 60.8675" stroke="#DBDBDB" stroke-width="10.048" stroke-linecap="round" stroke-linejoin="round"/>
<path d="M75.0927 24.2892L75.1378 24.3298" stroke="#DBDBDB" stroke-width="10.048" stroke-linecap="round" stroke-linejoin="round"/>
<path d="M68.9556 18.1928L69.0007 18.2334" stroke="#DBDBDB" stroke-width="10.048" stroke-linecap="round" stroke-linejoin="round"/>
<path d="M68.9556 30.3856L69.0007 30.4262" stroke="#DBDBDB" stroke-width="10.048" stroke-linecap="round" stroke-linejoin="round"/>
<path d="M62.8999 24.2892L62.945 24.3298" stroke="#DBDBDB" stroke-width="10.048" stroke-linecap="round" stroke-linejoin="round"/>
<path d="M30.3858 18.1928V30.3856" stroke="#DBDBDB" stroke-width="10.048" stroke-linecap="round" stroke-linejoin="round"/>
<path d="M24.2894 24.2892H36.4822" stroke="#DBDBDB" stroke-width="10.048" stroke-linecap="round" stroke-linejoin="round"/>
<path d="M34.4501 54.7711C38.9393 54.7711 42.5786 51.132 42.5786 46.6426C42.5786 42.1532 38.9393 38.5141 34.4501 38.5141C29.9608 38.5141 26.3215 42.1532 26.3215 46.6426C26.3215 51.132 29.9608 54.7711 34.4501 54.7711Z" stroke="#DBDBDB" stroke-width="10.048" stroke-linecap="round" stroke-linejoin="round"/>
<path d="M66.9642 54.7711C71.4535 54.7711 75.0927 51.132 75.0927 46.6426C75.0927 42.1532 71.4535 38.5141 66.9642 38.5141C62.4748 38.5141 58.8356 42.1532 58.8356 46.6426C58.8356 51.132 62.4748 54.7711 66.9642 54.7711Z" stroke="#DBDBDB" stroke-width="10.048" stroke-linecap="round" stroke-linejoin="round"/>
</svg>
