<svg width="122" height="93" viewBox="0 0 122 93" fill="none" xmlns="http://www.w3.org/2000/svg">
<g filter="url(#filter0_f_8_128)">
<path d="M83.0605 70.8675C93.2212 85.0924 109.269 74.5867 105.414 60.7068C99.6236 39.8618 96.473 28.256 94.8343 22.1286C93.8702 18.5254 90.6046 16 86.8744 16H34.5396C30.8097 16 27.559 18.5394 26.6521 22.1574C23.2407 35.7665 20.197 47.7077 16.5861 60.7068C12.7306 74.5867 28.7789 85.0924 38.9395 70.8675" stroke="#DBDBDB" stroke-width="10.048" stroke-linecap="round" stroke-linejoin="round"/>
<path d="M85.0927 34.2892L85.1378 34.3298" stroke="#DBDBDB" stroke-width="10.048" stroke-linecap="round" stroke-linejoin="round"/>
<path d="M78.9556 28.1927L79.0007 28.2334" stroke="#DBDBDB" stroke-width="10.048" stroke-linecap="round" stroke-linejoin="round"/>
<path d="M78.9556 40.3855L79.0007 40.4261" stroke="#DBDBDB" stroke-width="10.048" stroke-linecap="round" stroke-linejoin="round"/>
<path d="M72.8999 34.2892L72.945 34.3298" stroke="#DBDBDB" stroke-width="10.048" stroke-linecap="round" stroke-linejoin="round"/>
<path d="M40.3858 28.1927V40.3855" stroke="#DBDBDB" stroke-width="10.048" stroke-linecap="round" stroke-linejoin="round"/>
<path d="M34.2894 34.2892H46.4822" stroke="#DBDBDB" stroke-width="10.048" stroke-linecap="round" stroke-linejoin="round"/>
<path d="M44.4501 64.7711C48.9393 64.7711 52.5786 61.1319 52.5786 56.6426C52.5786 52.1532 48.9393 48.514 44.4501 48.514C39.9608 48.514 36.3215 52.1532 36.3215 56.6426C36.3215 61.1319 39.9608 64.7711 44.4501 64.7711Z" stroke="#DBDBDB" stroke-width="10.048" stroke-linecap="round" stroke-linejoin="round"/>
<path d="M76.9642 64.7711C81.4535 64.7711 85.0927 61.1319 85.0927 56.6426C85.0927 52.1532 81.4535 48.514 76.9642 48.514C72.4748 48.514 68.8356 52.1532 68.8356 56.6426C68.8356 61.1319 72.4748 64.7711 76.9642 64.7711Z" stroke="#DBDBDB" stroke-width="10.048" stroke-linecap="round" stroke-linejoin="round"/>
</g>
<defs>
<filter id="filter0_f_8_128" x="0.977478" y="0.975952" width="120.045" height="91.6887" filterUnits="userSpaceOnUse" color-interpolation-filters="sRGB">
<feFlood flood-opacity="0" result="BackgroundImageFix"/>
<feBlend mode="normal" in="SourceGraphic" in2="BackgroundImageFix" result="shape"/>
<feGaussianBlur stdDeviation="5" result="effect1_foregroundBlur_8_128"/>
</filter>
</defs>
</svg>
