<svg width="65" height="66" viewBox="0 0 65 66" fill="none" xmlns="http://www.w3.org/2000/svg">
<path d="M46.1405 0H18.8919C7.05602 0 0 7.05602 0 18.8919V46.108C0 57.9764 7.05602 65.0324 18.8919 65.0324H46.108C57.9439 65.0324 64.9999 57.9764 64.9999 46.1405V18.8919C65.0324 7.05602 57.9764 0 46.1405 0ZM32.5162 45.1325C25.5577 45.1325 19.8999 39.4747 19.8999 32.5162C19.8999 25.5577 25.5577 19.8999 32.5162 19.8999C39.4747 19.8999 45.1325 25.5577 45.1325 32.5162C45.1325 39.4747 39.4747 45.1325 32.5162 45.1325ZM51.7658 15.8679C51.6032 16.2581 51.3756 16.6158 51.083 16.9409C50.7578 17.2336 50.4001 17.4612 50.0099 17.6238C49.6197 17.7864 49.197 17.8839 48.7743 17.8839C47.8964 17.8839 47.0835 17.5587 46.4657 16.9409C46.173 16.6158 45.9454 16.2581 45.7828 15.8679C45.6202 15.4777 45.5227 15.055 45.5227 14.6323C45.5227 14.2096 45.6202 13.7869 45.7828 13.3967C45.9454 12.974 46.173 12.6488 46.4657 12.3236C47.2135 11.5758 48.3516 11.2181 49.3921 11.4457C49.6197 11.4782 49.8148 11.5433 50.0099 11.6408C50.205 11.7058 50.4001 11.8034 50.5952 11.9334C50.7578 12.031 50.9204 12.1936 51.083 12.3236C51.3756 12.6488 51.6032 12.974 51.7658 13.3967C51.9284 13.7869 52.0259 14.2096 52.0259 14.6323C52.0259 15.055 51.9284 15.4777 51.7658 15.8679Z" fill="#DBDBDB"/>
</svg>
