<svg width="81" height="81" viewBox="0 0 81 81" fill="none" xmlns="http://www.w3.org/2000/svg">
<path d="M62.413 0H17.7219C7.98202 0 0.0458374 7.92793 0.0458374 17.6577V43.6837V44.4845C0.0458374 54.2543 7.98202 62.1421 17.7219 62.1421H33.1133C35.3178 62.1421 37.1215 63.9439 37.1215 66.1461V70.03C37.1215 72.2322 35.3178 74.034 33.1133 74.034H23.4135C21.7701 74.034 20.4074 75.3954 20.4074 77.037C20.4074 78.6787 21.7301 80.0801 23.4135 80.0801H56.8818C58.5251 80.0801 59.8879 78.7187 59.8879 77.0771C59.8879 75.4354 58.5251 74.0741 56.8818 74.0741H47.182C44.9775 74.0741 43.1738 72.2723 43.1738 70.0701V66.1862C43.1738 63.984 44.9775 62.1822 47.182 62.1822H62.4531C72.2331 62.1822 80.1292 54.2543 80.1292 44.5245V43.7237V17.6977C80.0891 7.92793 72.1529 0 62.413 0Z" fill="#DBDBDB"/>
</svg>
