<svg width="65" height="65" viewBox="0 0 65 65" fill="none" xmlns="http://www.w3.org/2000/svg">
<path d="M64.9465 30.5798C63.8417 11.7324 46.7164 -2.79317 26.9915 0.456403C13.4082 2.69861 2.52217 13.7146 0.409941 27.2977C-0.824897 35.1617 0.799955 42.6032 4.34199 48.7449L1.44984 59.501C0.799923 61.9382 3.04206 64.1479 5.44675 63.4655L16.0404 60.5409C20.8498 63.368 26.4716 64.9928 32.4833 64.9928C50.8109 64.9928 66.0189 48.8424 64.9465 30.5798ZM48.3737 44.5855C48.0812 45.1704 47.7238 45.7228 47.2689 46.2428C46.4565 47.1201 45.5791 47.7701 44.6042 48.16C43.6293 48.5825 42.557 48.7774 41.4196 48.7774C39.7623 48.7774 37.9751 48.3878 36.1228 47.5754C34.2381 46.763 32.3858 45.6903 30.5335 44.358C28.6488 42.9932 26.894 41.4659 25.2042 39.8086C23.5145 38.1188 22.0196 36.3316 20.6547 34.4793C19.3224 32.627 18.2501 30.7748 17.4702 28.9225C16.6903 27.0703 16.3004 25.2832 16.3004 23.5934C16.3004 22.4885 16.4954 21.4161 16.8853 20.4413C17.2753 19.4339 17.8928 18.524 18.7701 17.7116C19.81 16.6718 20.9473 16.1843 22.1496 16.1843C22.6045 16.1843 23.0594 16.2818 23.4819 16.4768C23.9043 16.6718 24.2943 16.9642 24.5868 17.3867L28.3563 22.7159C28.6488 23.1384 28.8763 23.4958 29.0062 23.8533C29.1687 24.2107 29.2337 24.5357 29.2337 24.8606C29.2337 25.2506 29.1037 25.6406 28.8763 26.0304C28.6488 26.4203 28.3563 26.8103 27.9664 27.2002L26.7315 28.5001C26.5366 28.6951 26.4716 28.89 26.4716 29.15C26.4716 29.28 26.5041 29.41 26.5366 29.5399C26.6016 29.6699 26.634 29.7674 26.6665 29.8649C26.959 30.4173 27.4789 31.0997 28.1938 31.9446C28.9412 32.7895 29.7211 33.6669 30.566 34.5118C31.4434 35.3892 32.2883 36.1691 33.1657 36.9165C34.0106 37.6314 34.7255 38.1188 35.2779 38.4113C35.3754 38.4438 35.4729 38.5088 35.5704 38.5413C35.7004 38.6063 35.8303 38.6063 35.9928 38.6063C36.2853 38.6063 36.4803 38.5088 36.6752 38.3138L37.9101 37.079C38.3325 36.6565 38.7225 36.3641 39.0799 36.1691C39.4699 35.9416 39.8273 35.8116 40.2498 35.8116C40.5747 35.8116 40.8997 35.8766 41.2571 36.0391C41.6146 36.2016 42.0045 36.3965 42.3945 36.689L47.7888 40.5235C48.2112 40.816 48.5037 41.1734 48.6987 41.5634C48.8611 41.9858 48.9586 42.3758 48.9586 42.8307C48.7637 43.3831 48.6337 44.0006 48.3737 44.5855Z" fill="#DBDBDB"/>
</svg>
